HIERARCHY
ROOT root
{
	OFFSET	0	13.1	24.9
	CHANNELS 6  Xposition Yposition Zposition Xrotation Yrotation Zrotation
	JOINT spine_1
	{
		OFFSET	0	9.99999	0
		CHANNELS 3  Xrotation Yrotation Zrotation
		JOINT spine_2
		{
			OFFSET	0	112	-10
			CHANNELS 3  Xrotation Yrotation Zrotation
			JOINT spine_3
			{
				OFFSET	0	206.5	19.3
				CHANNELS 3  Xrotation Yrotation Zrotation
				JOINT spine_4
				{
					OFFSET	0	110.4	14.6
					CHANNELS 3  Xrotation Yrotation Zrotation
					JOINT neck_1
					{
						OFFSET	0	71.8	-50.3
						CHANNELS 3  Xrotation Yrotation Zrotation
						JOINT neck_2
						{
							OFFSET	0	86.2	-25.8
							CHANNELS 3  Xrotation Yrotation Zrotation
							JOINT head_ee
							{
								OFFSET	0	179.8	-8.7
								CHANNELS 3  Xrotation Yrotation Zrotation
								End Site
								{
									OFFSET	1	0	0
								}
							}
						}
					}
					JOINT left_clavicle
					{
						OFFSET	-43.2	22.4	-70.8
						CHANNELS 3  Xrotation Yrotation Zrotation
						JOINT left_shoulder
						{
							OFFSET	-93.9	-5.79999	48.7
							CHANNELS 3  Xrotation Yrotation Zrotation
							JOINT left_elbow
							{
								OFFSET	-291.4	-30.8	15.2
								CHANNELS 3  Xrotation Yrotation Zrotation
								JOINT left_lowarm_twist
								{
									OFFSET	-110.7	-3.89999	13.6
									CHANNELS 3  Xrotation Yrotation Zrotation
									JOINT left_hand
									{
										OFFSET	-110.7	-3.89999	13.6
										CHANNELS 3  Xrotation Yrotation Zrotation
										JOINT left_ee
										{
											OFFSET	-80.8	-5.10001	12.1
											CHANNELS 3  Xrotation Yrotation Zrotation
											End Site
											{
												OFFSET	1	0	0
											}
										}
									}
								}
							}
						}
					}
					JOINT right_clavicle
					{
						OFFSET	43.2	22.4	-70.8
						CHANNELS 3  Xrotation Yrotation Zrotation
						JOINT right_shoulder
						{
							OFFSET	93.9	-5.79999	48.7
							CHANNELS 3  Xrotation Yrotation Zrotation
							JOINT right_elbow
							{
								OFFSET	291.4	-30.8	15.2
								CHANNELS 3  Xrotation Yrotation Zrotation
								JOINT right_lowarm_twist
								{
									OFFSET	110.7	-3.89999	13.6
									CHANNELS 3  Xrotation Yrotation Zrotation
									JOINT right_hand
									{
										OFFSET	110.7	-3.89999	13.6
										CHANNELS 3  Xrotation Yrotation Zrotation
										JOINT right_ee
										{
											OFFSET	80.8	-5.10001	12.1
											CHANNELS 3  Xrotation Yrotation Zrotation
											End Site
											{
												OFFSET	1	0	0
											}
										}
									}
								}
							}
						}
					}
				}
			}
		}
	}
	JOINT left_hip
	{
		OFFSET	-82.8	-127.5	0.300001
		CHANNELS 3  Xrotation Yrotation Zrotation
		JOINT left_knee
		{
			OFFSET	-28.2	-396.7	2.2
			CHANNELS 3  Xrotation Yrotation Zrotation
			JOINT left_ankle
			{
				OFFSET	-11.7	-411.3	35.4
				CHANNELS 3  Xrotation Yrotation Zrotation
				JOINT left_toes
				{
					OFFSET	0	-60	-88.6
					CHANNELS 3  Xrotation Yrotation Zrotation
					JOINT left_foot_ee
					{
						OFFSET	-22.5	-16.5	-42.2
						CHANNELS 3  Xrotation Yrotation Zrotation
						End Site
						{
							OFFSET	1	0	0
						}
					}
				}
			}
		}
	}
	JOINT right_hip
	{
		OFFSET	82.8	-127.5	0.300001
		CHANNELS 3  Xrotation Yrotation Zrotation
		JOINT right_knee
		{
			OFFSET	28.2	-396.7	2.2
			CHANNELS 3  Xrotation Yrotation Zrotation
			JOINT right_ankle
			{
				OFFSET	11.7	-411.3	35.4
				CHANNELS 3  Xrotation Yrotation Zrotation
				JOINT right_toes
				{
					OFFSET	0	-60	-88.6
					CHANNELS 3  Xrotation Yrotation Zrotation
					JOINT right_foot_ee
					{
						OFFSET	22.5	-16.5	-42.2
						CHANNELS 3  Xrotation Yrotation Zrotation
						End Site
						{
							OFFSET	1	0	0
						}
					}
				}
			}
		}
	}
}
MOTION
Frames: 10
Frame Time: 0.02
2800.94 716.97 -1473.77 -2.37700887506 75.2500530775 0.966177603252 1.42633 -0.273526 -0.569313 1.42648 -0.236745 -0.585563 1.42896 -0.123878 -0.619343 1.42849 -0.220136 -0.592007 -10.0622 5.77 5.49943 -9.99706 7.15183 6.78964 -0.0 0.0 -0.0 0.614249 11.8498 2.43192 16.3741 -26.0276 69.3084 2.2714 -48.3645 1.02007 -16.5813 -0.869559 1.92627 -1.53735 1.6849 -9.55322 -0.0 0.0 -0.0 0.99249 5.51377 -1.34383 -17.1594 4.82603 -71.993 0.379424 10.6451 -0.0353487 0.467855 -0.0162496 0.0575422 0.058899 -20.5035 -8.61546 0.0 0.0 0.0 -15.6589 0.307738 8.48047 0.115893 -0.00478947 -0.0171399 38.2419 16.9598 -4.80263 -4.71973 0.0 0.0 -0.0 0.0 -0.0 33.6411 20.1353 -4.2871 -15.6053 -0.322085 -2.36576 41.1106 -6.5178 4.9547 17.673 -0.0 -0.0 0.0 0.0 0.0 
2740.75032191 720.916 -1493.97810173 -5.051863772 78.5729134709 3.96698190524 1.43032 -0.118569 -0.760254 1.43064 -0.0699534 -0.766258 1.43162 0.0735479 -0.765921 1.4308 -0.0483344 -0.767924 -2.97029 5.08988 3.14367 -2.93327 6.79682 4.00394 -0.0 0.0 -0.0 -0.298404 11.4696 0.852194 11.1419 -26.1626 73.5374 1.93853 -43.8349 0.780033 -20.2418 -1.13441 2.31293 -1.27227 0.263809 -8.40934 -0.0 0.0 -0.0 1.14036 5.61624 -1.63104 -15.6699 4.3347 -74.166 0.588814 16.2611 -0.0841218 1.0693 -0.0364466 0.131703 -0.443233 -21.4232 -5.98956 0.0 0.0 0.0 -16.5249 1.27354 7.2505 -2.15419 0.0826837 0.320237 38.0438 26.5279 -5.02558 -4.58833 0.0 0.0 -0.0 0.0 -0.0 32.0727 19.8049 -5.02138 -21.5196 -0.274485 -3.27157 41.0725 -6.55508 4.95157 23.6626 -0.0 -0.0 0.0 0.0 0.0 
2741.19264135 720.916 -1495.25063914 -4.57332183995 77.3614128383 3.47771685032 1.43032 -0.118569 -0.760254 1.43064 -0.0699534 -0.766258 1.43162 0.0735479 -0.765921 1.4308 -0.0483344 -0.767924 -2.97029 5.08988 3.14367 -2.93327 6.79682 4.00394 -0.0 0.0 -0.0 -0.298404 11.4696 0.852194 11.1419 -26.1626 73.5374 1.93853 -43.8349 0.780033 -20.2418 -1.13441 2.31293 -1.27227 0.263809 -8.40934 -0.0 0.0 -0.0 1.14036 5.61624 -1.63104 -15.6699 4.3347 -74.166 0.588814 16.2611 -0.0841218 1.0693 -0.0364466 0.131703 -0.443233 -21.4232 -5.98956 0.0 0.0 0.0 -16.5249 1.27354 7.2505 -2.15419 0.0826837 0.320237 38.0438 26.5279 -5.02558 -4.58833 0.0 0.0 -0.0 0.0 -0.0 32.0727 19.8049 -5.02138 -21.5196 -0.274485 -3.27157 41.0725 -6.55508 4.95157 23.6626 -0.0 -0.0 0.0 0.0 0.0 
2741.58753399 720.916 -1496.31882486 -4.23551285908 76.3367189597 3.13082384626 1.43032 -0.118569 -0.760254 1.43064 -0.0699534 -0.766258 1.43162 0.0735479 -0.765921 1.4308 -0.0483344 -0.767924 -2.97029 5.08988 3.14367 -2.93327 6.79682 4.00394 -0.0 0.0 -0.0 -0.298404 11.4696 0.852194 11.1419 -26.1626 73.5374 1.93853 -43.8349 0.780033 -20.2418 -1.13441 2.31293 -1.27227 0.263809 -8.40934 -0.0 0.0 -0.0 1.14036 5.61624 -1.63104 -15.6699 4.3347 -74.166 0.588814 16.2611 -0.0841218 1.0693 -0.0364466 0.131703 -0.443233 -21.4232 -5.98956 0.0 0.0 0.0 -16.5249 1.27354 7.2505 -2.15419 0.0826837 0.320237 38.0438 26.5279 -5.02558 -4.58833 0.0 0.0 -0.0 0.0 -0.0 32.0727 19.8049 -5.02138 -21.5196 -0.274485 -3.27157 41.0725 -6.55508 4.95157 23.6626 -0.0 -0.0 0.0 0.0 0.0 
2694.45320724 720.473 -1507.6234986 -0.172981819408 80.4238558473 -0.505512058607 1.08205 -0.293122 -0.90949 1.08248 -0.234657 -0.926297 1.08643 -0.0528461 -0.954093 1.08522 -0.202857 -0.933776 0.205516 4.01193 2.51089 0.232776 5.07719 3.12094 -0.0 0.0 -0.0 -0.627747 11.2372 0.265132 6.86206 -25.732 74.7815 1.50835 -36.7643 0.501264 -22.3917 -1.30134 2.53194 -1.18557 0.505649 -7.71674 -0.0 0.0 -0.0 1.34677 4.50381 -2.15707 -12.7177 5.38911 -74.2956 0.680303 18.624 -0.111551 1.26519 -0.0428563 0.155903 -0.403363 -21.021 -6.06505 0.0 0.0 0.0 -17.5004 4.12767 5.36803 -5.86672 0.196709 0.878489 36.5266 27.8551 -4.91429 -3.14304 0.0 0.0 -0.0 0.0 -0.0 29.7885 20.0508 -5.68176 -26.946 -0.148874 -4.09451 41.1763 -6.57756 4.9604 26.728 -0.0 -0.0 0.0 0.0 0.0 
2695.34307485 720.473 -1510.30472046 -0.150480860992 78.9752401243 -0.528379763566 1.08205 -0.293122 -0.90949 1.08248 -0.234657 -0.926297 1.08643 -0.0528461 -0.954093 1.08522 -0.202857 -0.933776 0.205516 4.01193 2.51089 0.232776 5.07719 3.12094 -0.0 0.0 -0.0 -0.627747 11.2372 0.265132 6.86206 -25.732 74.7815 1.50835 -36.7643 0.501264 -22.3917 -1.30134 2.53194 -1.18557 0.505649 -7.71674 -0.0 0.0 -0.0 1.34677 4.50381 -2.15707 -12.7177 5.38911 -74.2956 0.680303 18.624 -0.111551 1.26519 -0.0428563 0.155903 -0.403363 -21.021 -6.06505 0.0 0.0 0.0 -17.5004 4.12767 5.36803 -5.86672 0.196709 0.878489 36.5266 27.8551 -4.91429 -3.14304 0.0 0.0 -0.0 0.0 -0.0 29.7885 20.0508 -5.68176 -26.946 -0.148874 -4.09451 41.1763 -6.57756 4.9604 26.728 -0.0 -0.0 0.0 0.0 0.0 
2672.78068926 726.024 -1512.82386536 8.41621488743 79.0644486029 -9.27740745025 0.758936 0.068455 -0.671101 0.75918 0.111019 -0.665385 0.757921 0.240082 -0.630417 0.757393 0.137508 -0.66042 -0.985858 3.19926 2.19735 -0.968133 3.96768 2.71505 -0.0 0.0 -0.0 -0.740358 11.4154 0.0980951 5.34246 -25.3498 76.0195 1.2173 -31.0894 0.338623 -24.8307 -1.50056 2.7727 -1.25047 1.34537 -7.77685 -0.0 0.0 -0.0 0.799148 4.3505 -1.07895 -10.3904 6.37943 -76.0778 0.740239 20.1376 -0.131443 1.37981 -0.0465686 0.170072 -0.500461 -21.4622 -5.66833 0.0 0.0 0.0 -15.9184 6.30082 4.57289 -12.2737 0.307681 1.85486 30.2168 27.8509 -4.20864 -2.18581 0.0 0.0 -0.0 0.0 -0.0 27.1235 21.1619 -6.79887 -28.9196 -0.0839285 -4.39043 40.7569 -3.9718 4.92327 27.7077 -0.0 -0.0 0.0 0.0 0.0 
2673.30926508 726.024 -1514.51811447 7.87844670332 78.313103992 -8.72899883463 0.758936 0.068455 -0.671101 0.75918 0.111019 -0.665385 0.757921 0.240082 -0.630417 0.757393 0.137508 -0.66042 -0.985858 3.19926 2.19735 -0.968133 3.96768 2.71505 -0.0 0.0 -0.0 -0.740358 11.4154 0.0980951 5.34246 -25.3498 76.0195 1.2173 -31.0894 0.338623 -24.8307 -1.50056 2.7727 -1.25047 1.34537 -7.77685 -0.0 0.0 -0.0 0.799148 4.3505 -1.07895 -10.3904 6.37943 -76.0778 0.740239 20.1376 -0.131443 1.37981 -0.0465686 0.170072 -0.500461 -21.4622 -5.66833 0.0 0.0 0.0 -15.9184 6.30082 4.57289 -12.2737 0.307681 1.85486 30.2168 27.8509 -4.20864 -2.18581 0.0 0.0 -0.0 0.0 -0.0 27.1235 21.1619 -6.79887 -28.9196 -0.0839285 -4.39043 40.7569 -3.9718 4.92327 27.7077 -0.0 -0.0 0.0 0.0 0.0 
2662.27586434 729.903 -1516.08098839 12.1048201684 79.4777646753 -13.118977847 0.565688 0.041348 -0.465897 0.565806 0.0709101 -0.462322 0.565255 0.162179 -0.438712 0.564998 0.0908581 -0.458819 -0.691077 2.4805 1.23952 -0.681912 3.437 1.60699 -0.0 0.0 -0.0 -0.815407 11.5259 -0.0138325 4.15711 -25.4843 76.7762 0.947166 -25.1355 0.211161 -26.3957 -1.63374 2.92268 -1.28712 2.38649 -7.55388 -0.0 0.0 -0.0 0.506707 4.39986 -0.489417 -5.18173 7.40309 -77.8754 0.839584 22.5825 -0.167635 1.66197 -0.0555859 0.204983 -0.596995 -21.868 -5.26537 0.0 0.0 0.0 -15.7276 7.74309 4.39115 -15.213 0.321932 2.30556 26.1567 27.2898 -3.70256 -1.06505 0.0 0.0 -0.0 0.0 -0.0 26.0138 21.7811 -7.30136 -30.0614 -0.0417097 -4.56057 39.5468 -2.11093 4.82453 27.9273 -0.0 -0.0 0.0 0.0 0.0 
2647.52603539 732.846 -1519.88716512 13.0667127463 79.0931651689 -14.1065161961 0.403837 0.241002 -0.428865 0.4039 0.267803 -0.412661 0.40194 0.346115 -0.349588 0.401884 0.286561 -0.399863 -1.01501 2.16804 0.8127 -1.00837 3.23504 1.12161 -0.0 0.0 -0.0 -1.26558 11.7569 -0.74086 2.94601 -25.3601 77.3681 0.735284 -20.0135 0.129742 -27.5453 -1.73417 3.03052 -1.2728 3.24726 -7.06984 -0.0 0.0 -0.0 0.497672 6.14091 -0.27737 -1.76936 8.11439 -79.053 0.877198 23.4865 -0.182353 2.04582 -0.0675762 0.252546 -0.617146 -22.1178 -5.24884 0.0 0.0 0.0 -14.5369 8.76649 3.32499 -18.1693 0.312935 2.75901 23.8422 27.3957 -3.41326 -0.224964 0.0 0.0 -0.0 0.0 -0.0 24.3816 22.2098 -7.95304 -28.522 -0.0978322 -4.331 39.9919 -0.277621 4.87327 28.0926 -0.0 -0.0 0.0 0.0 0.0 
